
        <svg xmlns="http://www.w3.org/2000/svg" xmlns:xlink="http://www.w3.org/1999/xlink" version="1.1" width="3139.5348837209303" 
        height="1500" viewBox="0 0 3139.5348837209303 1500">
			<rect fill="#111111" width="3139.5348837209303" height="1500"/>
			<g transform="scale(6.976744186046512) translate(10, 10)">
				<defs id="SvgjsDefs10446"></defs><g id="SvgjsG10447" featureKey="rootContainer" transform="matrix(1,0,0,1,0,0)" fill="#eeeeee"><path xmlns="http://www.w3.org/2000/svg" fill-rule="evenodd" d=" M0,0 H430 V195 H0,0 z M2,2 H428 V193 H2,2 z M6,6 H424 V189 H6 z M8,8 H422 V187 H6,8 z "></path></g><g id="SvgjsG10448" featureKey="sloganFeature-0" transform="matrix(1.2418831586837769,0,0,1.2418831586837769,89.69009806783411,121.03360452673292)" fill="#00adb5"><path d="M2.26 17.68 c-0.44 -0.82 0.68 -1.42 1.2 -0.6 c0.26 0.42 1.04 1.14 2.28 1.14 c0.52 0 1.82 -0.38 2 -1.86 c0.12 -0.9 -0.74 -1.78 -2.22 -2.52 c-2.08 -0.98 -3.66 -1.84 -3.66 -3.56 c0 -2.04 1.72 -3 3.56 -3 c1.66 0 2.58 1.02 2.9 1.54 c0.46 0.74 -0.54 1.46 -1.1 0.74 c-0.28 -0.36 -0.82 -0.96 -1.8 -0.96 c-1.1 0 -2.24 0.52 -2.24 1.68 c0 0.92 1.02 1.44 2.54 2.16 c1.78 0.88 3.64 1.74 3.36 4.08 c-0.22 1.84 -1.62 3.02 -3.34 3.02 c-1.3 0 -2.9 -0.7 -3.48 -1.86 z M13.34 15.86 l0 -4.96 c0 -2.4 1.24 -3.68 3.64 -3.68 l0.52 0 c2.38 0 3.64 1.28 3.64 3.68 l0 4.96 c0 2.2 -1.46 3.64 -3.64 3.64 l-0.52 0 c-2.22 0 -3.64 -1.46 -3.64 -3.64 z M16.98 18.16 l0.52 0 c1.44 0 2.3 -0.9 2.3 -2.3 l0 -4.96 c0 -1.56 -0.76 -2.36 -2.3 -2.36 l-0.52 0 c-1.52 0 -2.36 0.82 -2.36 2.36 l0 4.96 c0 1.46 0.92 2.3 2.36 2.3 z M25.939999999999998 18.76 l0 -10.76 c0 -0.48 0.38 -0.64 0.66 -0.64 l4.6 0 c0.44 0 0.66 0.32 0.66 0.66 s-0.22 0.68 -0.66 0.68 l-3.94 0 l0 3.88 l3.14 0 c0.44 0 0.68 0.34 0.68 0.68 s-0.24 0.68 -0.68 0.68 l-3.14 0 l0 4.82 c0 0.42 -0.34 0.64 -0.66 0.64 c-0.34 0 -0.66 -0.22 -0.66 -0.64 z M35.519999999999996 7.359999999999999 l6.04 0 c0.42 0 0.62 0.34 0.62 0.68 s-0.2 0.66 -0.62 0.66 l-2.28 0 l0 10.06 c0 0.42 -0.34 0.64 -0.68 0.64 s-0.66 -0.22 -0.66 -0.64 l0 -10.06 l-2.42 0 c-0.42 0 -0.62 -0.32 -0.62 -0.66 s0.2 -0.68 0.62 -0.68 z M49.94 16.96 l2.4 -6.36 l-0.6 -2.34 c-0.26 -0.96 1.08 -1.2 1.3 -0.36 l2.36 8.68 l2.54 -8.68 c0.26 -0.9 1.58 -0.52 1.32 0.34 l-3.1 10.54 c-0.12 0.38 -0.46 0.62 -0.78 0.62 c-0.36 0 -0.68 -0.22 -0.8 -0.62 l-1.64 -6.02 c-0.76 2 -1.56 4.04 -2.3 6.04 c-0.14 0.36 -0.46 0.6 -0.76 0.6 s-0.6 -0.2 -0.74 -0.64 l-3.18 -10.52 c-0.26 -0.86 0.96 -1.14 1.22 -0.38 z M69.76 18.86 l-0.78 -2.54 l-3.72 0 l-0.74 2.5 c-0.26 0.86 -1.58 0.6 -1.3 -0.28 c1.04 -3.5 2.06 -7.06 3.08 -10.6 c0.12 -0.38 0.44 -0.58 0.76 -0.58 c0.3 0 0.62 0.2 0.74 0.58 l3.18 10.6 c0.22 0.76 -0.96 1.18 -1.22 0.32 z M67.1 10.06 l-1.44 4.92 l2.94 0 c-0.5 -1.68 -0.96 -3.12 -1.5 -4.92 z M76.75999999999999 15.9 l0 2.86 c0 0.44 -0.34 0.64 -0.66 0.64 c-0.34 0 -0.66 -0.2 -0.66 -0.64 l0 -10.74 c0 -0.4 0.22 -0.66 0.66 -0.66 l2.7 0 c0.76 0 3.16 0.22 3.16 2.92 l0 2.5 c0 1.52 -0.56 2.48 -1.84 2.9 l1.36 2.74 c0.28 0.54 -0.14 0.98 -0.58 0.98 c-0.24 0 -0.54 -0.16 -0.7 -0.5 l-1.46 -3 l-1.98 0 z M80.64 12.780000000000001 l0 -2.5 c0 -0.48 -0.18 -1.58 -1.84 -1.58 l-2.04 0 l0 5.86 l1.86 0 c0.98 0 2.02 -0.22 2.02 -1.78 z M86.78 18.7 l0 -10.64 c0 -0.46 0.36 -0.7 0.7 -0.7 l4.6 0 c0.44 0 0.66 0.32 0.66 0.66 s-0.22 0.68 -0.66 0.68 l-3.96 0 l0 3.88 l3.14 0 c0.46 0 0.68 0.32 0.68 0.66 s-0.24 0.7 -0.68 0.7 l-3.14 0 l0 4.14 l3.96 0 c0.42 0 0.64 0.34 0.64 0.66 c0 0.34 -0.22 0.66 -0.64 0.66 l-4.6 0 c-0.34 0 -0.7 -0.12 -0.7 -0.7 z M104.84 18.78 l0 -10.76 c0 -0.54 0.38 -0.66 0.66 -0.66 l3.2 0 c2.64 0 3.94 1.26 3.94 3.74 l0 5.12 c0 1.56 -1.22 3.2 -3.88 3.2 l-3.26 0 c-0.28 0 -0.66 -0.16 -0.66 -0.64 z M111.32 16.22 l0 -5.12 c0 -1.64 -0.88 -2.4 -2.62 -2.4 l-2.54 0 l0 9.42 l2.6 0 c1.22 0 2.56 -0.66 2.56 -1.9 z M117.4 18.7 l0 -10.64 c0 -0.46 0.36 -0.7 0.7 -0.7 l4.6 0 c0.44 0 0.66 0.32 0.66 0.66 s-0.22 0.68 -0.66 0.68 l-3.96 0 l0 3.88 l3.14 0 c0.46 0 0.68 0.32 0.68 0.66 s-0.24 0.7 -0.68 0.7 l-3.14 0 l0 4.14 l3.96 0 c0.42 0 0.64 0.34 0.64 0.66 c0 0.34 -0.22 0.66 -0.64 0.66 l-4.6 0 c-0.34 0 -0.7 -0.12 -0.7 -0.7 z M128.54 7.800000000000001 l2.62 9.02 l2.74 -8.98 c0.26 -0.86 1.48 -0.52 1.24 0.32 l-3.2 10.68 c-0.1 0.36 -0.42 0.56 -0.76 0.56 s-0.7 -0.2 -0.8 -0.56 l-3.06 -10.66 c-0.26 -0.9 1 -1.16 1.22 -0.38 z M139.46 18.7 l0 -10.64 c0 -0.46 0.36 -0.7 0.7 -0.7 l4.6 0 c0.44 0 0.66 0.32 0.66 0.66 s-0.22 0.68 -0.66 0.68 l-3.96 0 l0 3.88 l3.14 0 c0.46 0 0.68 0.32 0.68 0.66 s-0.24 0.7 -0.68 0.7 l-3.14 0 l0 4.14 l3.96 0 c0.42 0 0.64 0.34 0.64 0.66 c0 0.34 -0.22 0.66 -0.64 0.66 l-4.6 0 c-0.34 0 -0.7 -0.12 -0.7 -0.7 z M150.02 18.76 l0 -10.76 c0 -0.42 0.32 -0.64 0.64 -0.64 s0.66 0.22 0.66 0.64 l0 10.06 l3.98 0 c0.44 0 0.68 0.34 0.68 0.68 s-0.24 0.66 -0.68 0.66 l-4.62 0 c-0.4 0 -0.66 -0.32 -0.66 -0.64 z M159.74 15.86 l0 -4.96 c0 -2.4 1.24 -3.68 3.64 -3.68 l0.52 0 c2.38 0 3.64 1.28 3.64 3.68 l0 4.96 c0 2.2 -1.46 3.64 -3.64 3.64 l-0.52 0 c-2.22 0 -3.64 -1.46 -3.64 -3.64 z M163.38 18.16 l0.52 0 c1.44 0 2.3 -0.9 2.3 -2.3 l0 -4.96 c0 -1.56 -0.76 -2.36 -2.3 -2.36 l-0.52 0 c-1.52 0 -2.36 0.82 -2.36 2.36 l0 4.96 c0 1.46 0.92 2.3 2.36 2.3 z M178.88000000000002 10.28 l0 2.5 c0 2.38 -1.24 3.14 -3.34 3.14 l-1.86 0 l0 2.84 c0 0.42 -0.34 0.64 -0.66 0.64 c-0.34 0 -0.66 -0.22 -0.66 -0.64 l0 -10.74 c0 -0.38 0.32 -0.66 0.66 -0.66 l2.7 0 c1.1 0 3.16 0.22 3.16 2.92 z M175.72 8.7 l-2.04 0 l0 5.86 l1.86 0 c0.98 0 2.04 -0.24 2.02 -1.8 l-0.02 -2.48 c0 -0.48 -0.08 -1.58 -1.82 -1.58 z M182.98000000000002 18.7 l0 -10.64 c0 -0.46 0.36 -0.7 0.7 -0.7 l4.6 0 c0.44 0 0.66 0.32 0.66 0.66 s-0.22 0.68 -0.66 0.68 l-3.96 0 l0 3.88 l3.14 0 c0.46 0 0.68 0.32 0.68 0.66 s-0.24 0.7 -0.68 0.7 l-3.14 0 l0 4.14 l3.96 0 c0.42 0 0.64 0.34 0.64 0.66 c0 0.34 -0.22 0.66 -0.64 0.66 l-4.6 0 c-0.34 0 -0.7 -0.12 -0.7 -0.7 z M194.88000000000002 15.9 l0 2.86 c0 0.44 -0.34 0.64 -0.66 0.64 c-0.34 0 -0.66 -0.2 -0.66 -0.64 l0 -10.74 c0 -0.4 0.22 -0.66 0.66 -0.66 l2.7 0 c0.76 0 3.16 0.22 3.16 2.92 l0 2.5 c0 1.52 -0.56 2.48 -1.84 2.9 l1.36 2.74 c0.28 0.54 -0.14 0.98 -0.58 0.98 c-0.24 0 -0.54 -0.16 -0.7 -0.5 l-1.46 -3 l-1.98 0 z M198.76000000000002 12.780000000000001 l0 -2.5 c0 -0.48 -0.18 -1.58 -1.84 -1.58 l-2.04 0 l0 5.86 l1.86 0 c0.98 0 2.02 -0.22 2.02 -1.78 z"></path></g><g id="SvgjsG10449" featureKey="nameLeftFeature-0" transform="matrix(1.0975608825683594,0,0,1.0975608825683594,49.12195128812313,56.65853694278094)" fill="#eeeeee"><path d="M0.8 8 l4.2 0 l2.4 23.6 l0.4 0 l2.4 -23.6 l4.2 0 l-4.4 32 l-4.8 0 z M19.700000000000003 40 l0 -32 l4 0 l0 32 l-4 0 z M29.400000000000002 30.240000000000002 l4.04 0 c0.08 5.16 0.48 6.16 1.92 6.16 c1.96 0 1.96 -1.64 1.96 -6 c0 -6.4 -7.92 -4.68 -7.92 -13.2 c0 -5 0 -9.6 6 -9.6 c4.44 0 5.64 2.52 5.92 8.56 l-4 0 c-0.16 -4.36 -0.64 -5.36 -1.92 -5.36 c-1.96 0 -1.96 2.16 -1.96 6.4 c0 6.2 7.96 4 7.96 13.2 c0 5.6 0 10 -6.04 10 c-4.64 0 -5.72 -2.76 -5.96 -10.16 z M47.1 40 l0 -32 l4 0 l0 13.6 l4 0 l0 -13.6 l4 0 l0 32 l-4 0 l0 -15.2 l-4 0 l0 15.2 l-4 0 z M65.6 40 l0 -32 l3.6 0 l5.24 19.6 l-0.04 -0.4 l0 -19.2 l4 0 l0 32 l-3.6 0 l-5.24 -17.6 l0.04 0.4 l0 17.2 l-4 0 z M84.7 23.16 l0 -15.16 l4 0 l0 15.16 c0 11.56 0 13.24 2 13.24 s2 -1.68 2 -13.24 l0 -15.16 l4 0 l0 15.16 c0 12.8 0 17.24 -6 17.24 s-6 -4.44 -6 -17.24 z"></path></g><g id="SvgjsG10450" featureKey="inlineSymbolFeature-0" transform="matrix(0.8605577945709229,0,0,0.8605577945709229,171.98804762566238,39.41513863461794)" fill="#eeeeee"><metadata xmlns="http://www.w3.org/2000/svg"><sfw xmlns="http://ns.adobe.com/SaveForWeb/1.0/"><slices><slicesourcebounds width="1449" height="1446.4" y="-1446.7" x="0.5" bottomleftorigin="true"></slicesourcebounds></slices></sfw></metadata><path xmlns="http://www.w3.org/2000/svg" d="M89.3,87.6c4,0,7.2-3.2,7.2-7.2V19.5c0-4-3.2-7.2-7.2-7.2H10.7c-4,0-7.2,3.2-7.2,7.2v60.9c0,4,3.2,7.2,7.2,7.2H89.3z   M10.7,17.4h78.5c1.2,0,2.2,1,2.2,2.2v10.4H8.6V19.5C8.6,18.3,9.5,17.4,10.7,17.4z M8.6,80.5V34.9h82.9v45.5c0,1.2-1,2.2-2.2,2.2  H10.7C9.5,82.6,8.6,81.7,8.6,80.5z M21.9,23.6c0-1.7,1.4-3,3-3s3,1.4,3,3c0,1.7-1.4,3-3,3S21.9,25.3,21.9,23.6z M31.9,23.6  c0-1.7,1.4-3,3-3s3,1.4,3,3c0,1.7-1.4,3-3,3S31.9,25.3,31.9,23.6z M11.9,23.6c0-1.7,1.4-3,3-3c1.7,0,3,1.4,3,3c0,1.7-1.4,3-3,3  C13.3,26.7,11.9,25.3,11.9,23.6z M62.4,68.8L74,59l-11.6-9.8c-1.1-0.9-1.2-2.5-0.3-3.5c0.9-1.1,2.5-1.2,3.5-0.3l13.8,11.7  c0.6,0.5,0.9,1.2,0.9,1.9s-0.3,1.4-0.9,1.9L65.6,72.6c-0.5,0.4-1,0.6-1.6,0.6c-0.7,0-1.4-0.3-1.9-0.9C61.2,71.3,61.3,69.7,62.4,68.8  z M20.6,60.9c-0.6-0.5-0.9-1.2-0.9-1.9s0.3-1.4,0.9-1.9l13.8-11.7c1.1-0.9,2.6-0.8,3.5,0.3c0.9,1.1,0.8,2.6-0.3,3.5L26,59l11.6,9.8  c1.1,0.9,1.2,2.5,0.3,3.5c-0.5,0.6-1.2,0.9-1.9,0.9c-0.6,0-1.1-0.2-1.6-0.6L20.6,60.9z M41.8,72.7l11.7-29.3c0.5-1.3,2-1.9,3.3-1.4  c1.3,0.5,1.9,2,1.4,3.3L46.4,74.6c-0.4,1-1.3,1.6-2.3,1.6c-0.3,0-0.6-0.1-0.9-0.2C41.9,75.4,41.3,74,41.8,72.7z"></path></g><g id="SvgjsG10451" featureKey="nameRightFeature-0" transform="matrix(1.0975608825683594,0,0,1.0975608825683594,260.4024401732245,56.65853798949656)" fill="#eeeeee"><path d="M13.3 40 l0 -32 l6.48 0 c4.12 0 5.2 2.52 5.52 8.56 l0 1.28 c-0.32 6.04 -1.4 8.56 -5.52 8.56 l-2.48 0 l0 13.6 l-4 0 z M17.3 23.2 l2.48 0 c1.2 0 1.64 -1 1.8 -5.36 l0 -1.28 c-0.16 -4.36 -0.6 -5.36 -1.8 -5.36 l-2.48 0 l0 12 z M30.200000000000003 23.16 c0 -11.16 0.24 -15.56 6.24 -15.56 s6.24 4.4 6.24 15.56 c0 12.8 -0.24 17.24 -6.24 17.24 s-6.24 -4.44 -6.24 -17.24 z M34.2 23.16 c0 11.56 0 13.24 2.24 13.24 s2.24 -1.68 2.24 -13.24 c0 -10.4 0 -12.36 -2.24 -12.36 s-2.24 1.96 -2.24 12.36 z M48.38 23.16 c0 -11.16 0.24 -15.56 6.24 -15.56 s6.24 4.4 6.24 15.56 c0 12.8 -0.24 17.24 -6.24 17.24 s-6.24 -4.44 -6.24 -17.24 z M52.38 23.16 c0 11.56 0 13.24 2.24 13.24 s2.24 -1.68 2.24 -13.24 c0 -10.4 0 -12.36 -2.24 -12.36 s-2.24 1.96 -2.24 12.36 z M66.96000000000001 40 l0 -32 l3.6 0 l5.24 19.6 l-0.04 -0.4 l0 -19.2 l4 0 l0 32 l-3.6 0 l-5.24 -17.6 l0.04 0.4 l0 17.2 l-4 0 z M86.26 40 l0 -16.8 c0 -11.16 0 -15.56 6 -15.56 s6 4.4 6 15.56 l0 16.8 l-4 0 l0 -9.2 l-4 0 l0 9.2 l-4 0 z M90.26 27.6 l4 0 l0 -4.4 c0 -10.4 0 -12.36 -2 -12.36 s-2 1.96 -2 12.36 l0 4.4 z M104.76 40 l0 -32 l4 0 l0 32 l-4 0 z"></path></g>
			</g>
		</svg>
	