
        <svg xmlns="http://www.w3.org/2000/svg" xmlns:xlink="http://www.w3.org/1999/xlink" version="1.1" width="3164.158686730506" 
        height="1315.3214774281805" viewBox="0 0 3164.158686730506 1315.3214774281805">
			
			<g transform="scale(8.207934336525307) translate(10, 10)">
				<defs id="SvgjsDefs9202"></defs><g id="SvgjsG9203" featureKey="rootContainer" transform="matrix(0.85,0,0,0.85,0,0)" fill="#ffffff"><path xmlns="http://www.w3.org/2000/svg" fill-rule="evenodd" d=" M0,0 H430 V165 H0,0 z M2,2 H428 V163 H2,2 z M6,6 H424 V159 H6 z M8,8 H422 V157 H6,8 z "></path></g><g id="SvgjsG9204" featureKey="nameLeftFeature-0" transform="matrix(1.0975608734911595,0,0,1.0975608734911595,17.121951288123128,44.65853694278094)" fill="#ffffff"><path d="M0.8 8 l4.2 0 l2.4 23.6 l0.4 0 l2.4 -23.6 l4.2 0 l-4.4 32 l-4.8 0 z M19.700000000000003 40 l0 -32 l4 0 l0 32 l-4 0 z M29.400000000000002 30.240000000000002 l4.04 0 c0.08 5.16 0.48 6.16 1.92 6.16 c1.96 0 1.96 -1.64 1.96 -6 c0 -6.4 -7.92 -4.68 -7.92 -13.2 c0 -5 0 -9.6 6 -9.6 c4.44 0 5.64 2.52 5.92 8.56 l-4 0 c-0.16 -4.36 -0.64 -5.36 -1.92 -5.36 c-1.96 0 -1.96 2.16 -1.96 6.4 c0 6.2 7.96 4 7.96 13.2 c0 5.6 0 10 -6.04 10 c-4.64 0 -5.72 -2.76 -5.96 -10.16 z M47.1 40 l0 -32 l4 0 l0 13.6 l4 0 l0 -13.6 l4 0 l0 32 l-4 0 l0 -15.2 l-4 0 l0 15.2 l-4 0 z M65.6 40 l0 -32 l3.6 0 l5.24 19.6 l-0.04 -0.4 l0 -19.2 l4 0 l0 32 l-3.6 0 l-5.24 -17.6 l0.04 0.4 l0 17.2 l-4 0 z M84.7 23.16 l0 -15.16 l4 0 l0 15.16 c0 11.56 0 13.24 2 13.24 s2 -1.68 2 -13.24 l0 -15.16 l4 0 l0 15.16 c0 12.8 0 17.24 -6 17.24 s-6 -4.44 -6 -17.24 z"></path></g><g id="SvgjsG9205" featureKey="inlineSymbolFeature-0" transform="matrix(0.8605578212393238,0,0,0.8605578212393238,139.98804762566238,27.41513863461794)" fill="#ffffff"><metadata xmlns="http://www.w3.org/2000/svg"><sfw xmlns="http://ns.adobe.com/SaveForWeb/1.0/"><slices><slicesourcebounds width="1449" height="1446.4" y="-1446.7" x="0.5" bottomleftorigin="true"></slicesourcebounds></slices></sfw></metadata><path xmlns="http://www.w3.org/2000/svg" d="M89.3,87.6c4,0,7.2-3.2,7.2-7.2V19.5c0-4-3.2-7.2-7.2-7.2H10.7c-4,0-7.2,3.2-7.2,7.2v60.9c0,4,3.2,7.2,7.2,7.2H89.3z   M10.7,17.4h78.5c1.2,0,2.2,1,2.2,2.2v10.4H8.6V19.5C8.6,18.3,9.5,17.4,10.7,17.4z M8.6,80.5V34.9h82.9v45.5c0,1.2-1,2.2-2.2,2.2  H10.7C9.5,82.6,8.6,81.7,8.6,80.5z M21.9,23.6c0-1.7,1.4-3,3-3s3,1.4,3,3c0,1.7-1.4,3-3,3S21.9,25.3,21.9,23.6z M31.9,23.6  c0-1.7,1.4-3,3-3s3,1.4,3,3c0,1.7-1.4,3-3,3S31.9,25.3,31.9,23.6z M11.9,23.6c0-1.7,1.4-3,3-3c1.7,0,3,1.4,3,3c0,1.7-1.4,3-3,3  C13.3,26.7,11.9,25.3,11.9,23.6z M62.4,68.8L74,59l-11.6-9.8c-1.1-0.9-1.2-2.5-0.3-3.5c0.9-1.1,2.5-1.2,3.5-0.3l13.8,11.7  c0.6,0.5,0.9,1.2,0.9,1.9s-0.3,1.4-0.9,1.9L65.6,72.6c-0.5,0.4-1,0.6-1.6,0.6c-0.7,0-1.4-0.3-1.9-0.9C61.2,71.3,61.3,69.7,62.4,68.8  z M20.6,60.9c-0.6-0.5-0.9-1.2-0.9-1.9s0.3-1.4,0.9-1.9l13.8-11.7c1.1-0.9,2.6-0.8,3.5,0.3c0.9,1.1,0.8,2.6-0.3,3.5L26,59l11.6,9.8  c1.1,0.9,1.2,2.5,0.3,3.5c-0.5,0.6-1.2,0.9-1.9,0.9c-0.6,0-1.1-0.2-1.6-0.6L20.6,60.9z M41.8,72.7l11.7-29.3c0.5-1.3,2-1.9,3.3-1.4  c1.3,0.5,1.9,2,1.4,3.3L46.4,74.6c-0.4,1-1.3,1.6-2.3,1.6c-0.3,0-0.6-0.1-0.9-0.2C41.9,75.4,41.3,74,41.8,72.7z"></path></g><g id="SvgjsG9206" featureKey="nameRightFeature-0" transform="matrix(1.0975608734911595,0,0,1.0975608734911595,228.40244017322445,44.65853798949656)" fill="#ffffff"><path d="M13.3 40 l0 -32 l6.48 0 c4.12 0 5.2 2.52 5.52 8.56 l0 1.28 c-0.32 6.04 -1.4 8.56 -5.52 8.56 l-2.48 0 l0 13.6 l-4 0 z M17.3 23.2 l2.48 0 c1.2 0 1.64 -1 1.8 -5.36 l0 -1.28 c-0.16 -4.36 -0.6 -5.36 -1.8 -5.36 l-2.48 0 l0 12 z M30.200000000000003 23.16 c0 -11.16 0.24 -15.56 6.24 -15.56 s6.24 4.4 6.24 15.56 c0 12.8 -0.24 17.24 -6.24 17.24 s-6.24 -4.44 -6.24 -17.24 z M34.2 23.16 c0 11.56 0 13.24 2.24 13.24 s2.24 -1.68 2.24 -13.24 c0 -10.4 0 -12.36 -2.24 -12.36 s-2.24 1.96 -2.24 12.36 z M48.38 23.16 c0 -11.16 0.24 -15.56 6.24 -15.56 s6.24 4.4 6.24 15.56 c0 12.8 -0.24 17.24 -6.24 17.24 s-6.24 -4.44 -6.24 -17.24 z M52.38 23.16 c0 11.56 0 13.24 2.24 13.24 s2.24 -1.68 2.24 -13.24 c0 -10.4 0 -12.36 -2.24 -12.36 s-2.24 1.96 -2.24 12.36 z M66.96000000000001 40 l0 -32 l3.6 0 l5.24 19.6 l-0.04 -0.4 l0 -19.2 l4 0 l0 32 l-3.6 0 l-5.24 -17.6 l0.04 0.4 l0 17.2 l-4 0 z M86.26 40 l0 -16.8 c0 -11.16 0 -15.56 6 -15.56 s6 4.4 6 15.56 l0 16.8 l-4 0 l0 -9.2 l-4 0 l0 9.2 l-4 0 z M90.26 27.6 l4 0 l0 -4.4 c0 -10.4 0 -12.36 -2 -12.36 s-2 1.96 -2 12.36 l0 4.4 z M104.76 40 l0 -32 l4 0 l0 32 l-4 0 z"></path></g>
			</g>
		</svg>
	